<svg class="logo-svg-download-512" xmlns="http://www.w3.org/2000/svg" viewBox="0 0 1000 1000"
  width="512" height="512"
  data-fg-dxml229="3.57:3.32338:/src/app/components/RobotCoreLogo.tsx:581:7:25050:7258:e:svg"
  style="display: none;">
  <defs data-fg-dxml230="3.57:3.32338:/src/app/components/RobotCoreLogo.tsx:589:9:25265:1703:e:defs">
    <linearGradient id="bgGradLogo3" x1="0%" y1="0%" x2="100%" y2="100%"
      data-fg-dxml231="3.57:3.32338:/src/app/components/RobotCoreLogo.tsx:590:11:25282:259:e:linearGradient">
      <stop offset="0%" stop-color="#000000"
        data-fg-dxml232="3.57:3.32338:/src/app/components/RobotCoreLogo.tsx:591:13:25364:40:e:stop"></stop>
      <stop offset="30%" stop-color="#0a0a1a"
        data-fg-dxml233="3.57:3.32338:/src/app/components/RobotCoreLogo.tsx:592:13:25417:41:e:stop"></stop>
      <stop offset="60%" stop-color="#1a0f2e"
        data-fg-dxml234="3.57:3.32338:/src/app/components/RobotCoreLogo.tsx:593:13:25471:42:e:stop"></stop>
      <stop offset="100%" stop-color="#000000"
        data-fg-dxml234="3.57:3.32338:/src/app/components/RobotCoreLogo.tsx:593:13:25471:42:e:stop"></stop>
    </linearGradient>
    <!-- 星云渐变 -->
    <radialGradient id="nebulaGrad1" cx="20%" cy="30%">
      <stop offset="0%" stop-color="#1e1b4b" stop-opacity="0.4" />
      <stop offset="50%" stop-color="#312e81" stop-opacity="0.2" />
      <stop offset="100%" stop-color="#000000" stop-opacity="0" />
    </radialGradient>
    <radialGradient id="nebulaGrad2" cx="80%" cy="70%">
      <stop offset="0%" stop-color="#581c87" stop-opacity="0.3" />
      <stop offset="50%" stop-color="#7c3aed" stop-opacity="0.15" />
      <stop offset="100%" stop-color="#000000" stop-opacity="0" />
    </radialGradient>
    <radialGradient id="nebulaGrad3" cx="50%" cy="80%">
      <stop offset="0%" stop-color="#0c4a6e" stop-opacity="0.25" />
      <stop offset="50%" stop-color="#075985" stop-opacity="0.1" />
      <stop offset="100%" stop-color="#000000" stop-opacity="0" />
    </radialGradient>
    <linearGradient id="goldGradLogo3" x1="0%" y1="0%" x2="100%" y2="100%"
      data-fg-dxml235="3.57:3.32338:/src/app/components/RobotCoreLogo.tsx:595:11:25552:261:e:linearGradient">
      <stop offset="0%" stop-color="#fbbf24"
        data-fg-dxml236="3.57:3.32338:/src/app/components/RobotCoreLogo.tsx:596:13:25636:40:e:stop"></stop>
      <stop offset="50%" stop-color="#f59e0b"
        data-fg-dxml237="3.57:3.32338:/src/app/components/RobotCoreLogo.tsx:597:13:25689:41:e:stop"></stop>
      <stop offset="100%" stop-color="#d97706"
        data-fg-dxml238="3.57:3.32338:/src/app/components/RobotCoreLogo.tsx:598:13:25743:42:e:stop"></stop>
    </linearGradient>
    <radialGradient id="cyanGlowLogo3"
      data-fg-dxml239="3.57:3.32338:/src/app/components/RobotCoreLogo.tsx:600:11:25824:275:e:radialGradient">
      <stop offset="0%" stop-color="#06b6d4" stop-opacity="1"
        data-fg-dxml240="3.57:3.32338:/src/app/components/RobotCoreLogo.tsx:601:13:25872:56:e:stop"></stop>
      <stop offset="50%" stop-color="#0891b2" stop-opacity="0.6"
        data-fg-dxml241="3.57:3.32338:/src/app/components/RobotCoreLogo.tsx:602:13:25941:59:e:stop"></stop>
      <stop offset="100%" stop-color="#0e7490" stop-opacity="0"
        data-fg-dxml242="3.57:3.32338:/src/app/components/RobotCoreLogo.tsx:603:13:26013:58:e:stop"></stop>
    </radialGradient>
    <linearGradient id="metalGradLogo3" x1="0%" y1="0%" x2="0%" y2="100%"
      data-fg-dxml243="3.57:3.32338:/src/app/components/RobotCoreLogo.tsx:605:11:26110:260:e:linearGradient">
      <stop offset="0%" stop-color="#6b7280"
        data-fg-dxml244="3.57:3.32338:/src/app/components/RobotCoreLogo.tsx:606:13:26193:40:e:stop"></stop>
      <stop offset="50%" stop-color="#374151"
        data-fg-dxml245="3.57:3.32338:/src/app/components/RobotCoreLogo.tsx:607:13:26246:41:e:stop"></stop>
      <stop offset="100%" stop-color="#1f2937"
        data-fg-dxml246="3.57:3.32338:/src/app/components/RobotCoreLogo.tsx:608:13:26300:42:e:stop"></stop>
    </linearGradient>
    <filter id="glowLogo3"
      data-fg-dxml247="3.57:3.32338:/src/app/components/RobotCoreLogo.tsx:610:11:26381:253:e:filter">
      <feGaussianBlur stdDeviation="4" result="coloredBlur"
        data-fg-dxml248="3.57:3.32338:/src/app/components/RobotCoreLogo.tsx:611:13:26417:56:e:feGaussianBlur"></feGaussianBlur>
      <feMerge
        data-fg-dxml249="3.57:3.32338:/src/app/components/RobotCoreLogo.tsx:612:13:26486:128:e:feMerge">
        <feMergeNode in="coloredBlur"
          data-fg-dxml250="3.57:3.32338:/src/app/components/RobotCoreLogo.tsx:613:15:26510:32:e:feMergeNode"></feMergeNode>
        <feMergeNode in="SourceGraphic"
          data-fg-dxml251="3.57:3.32338:/src/app/components/RobotCoreLogo.tsx:614:15:26557:34:e:feMergeNode"></feMergeNode>
      </feMerge>
    </filter>
    <filter id="strongGlowLogo3"
      data-fg-dxml252="3.57:3.32338:/src/app/components/RobotCoreLogo.tsx:617:11:26645:307:e:filter">
      <feGaussianBlur stdDeviation="10" result="coloredBlur"
        data-fg-dxml253="3.57:3.32338:/src/app/components/RobotCoreLogo.tsx:618:13:26687:57:e:feGaussianBlur"></feGaussianBlur>
      <feMerge
        data-fg-dxml254="3.57:3.32338:/src/app/components/RobotCoreLogo.tsx:619:13:26757:175:e:feMerge">
        <feMergeNode in="coloredBlur"
          data-fg-dxml255="3.57:3.32338:/src/app/components/RobotCoreLogo.tsx:620:15:26781:32:e:feMergeNode"></feMergeNode>
        <feMergeNode in="coloredBlur"
          data-fg-dxml256="3.57:3.32338:/src/app/components/RobotCoreLogo.tsx:621:15:26828:32:e:feMergeNode"></feMergeNode>
        <feMergeNode in="SourceGraphic"
          data-fg-dxml257="3.57:3.32338:/src/app/components/RobotCoreLogo.tsx:622:15:26875:34:e:feMergeNode"></feMergeNode>
      </feMerge>
    </filter>
    <!-- 星球渐变 -->
    <radialGradient id="planetGrad" cx="50%" cy="40%">
      <stop offset="0%" stop-color="#1e40af" stop-opacity="1" />
      <stop offset="30%" stop-color="#1e3a8a" stop-opacity="1" />
      <stop offset="60%" stop-color="#1e293b" stop-opacity="1" />
      <stop offset="100%" stop-color="#0f172a" stop-opacity="1" />
    </radialGradient>
    <radialGradient id="planetAtmosphere" cx="50%" cy="50%">
      <stop offset="0%" stop-color="#06b6d4" stop-opacity="0" />
      <stop offset="70%" stop-color="#0891b2" stop-opacity="0.3" />
      <stop offset="90%" stop-color="#0e7490" stop-opacity="0.5" />
      <stop offset="100%" stop-color="#155e75" stop-opacity="0.7" />
    </radialGradient>
    <linearGradient id="planetTerrain" x1="0%" y1="0%" x2="100%" y2="100%">
      <stop offset="0%" stop-color="#1e40af" stop-opacity="0.8" />
      <stop offset="50%" stop-color="#1e3a8a" stop-opacity="0.6" />
      <stop offset="100%" stop-color="#0f172a" stop-opacity="0.9" />
    </linearGradient>
    <!-- 轨道环渐变 -->
    <linearGradient id="orbitRingGrad" x1="0%" y1="0%" x2="100%" y2="0%">
      <stop offset="0%" stop-color="#06b6d4" stop-opacity="0.3" />
      <stop offset="50%" stop-color="#fbbf24" stop-opacity="0.8" />
      <stop offset="100%" stop-color="#06b6d4" stop-opacity="0.3" />
    </linearGradient>
  </defs>
  <rect width="1000" height="1000" fill="url(#bgGradLogo3)"
    data-fg-dxml258="3.57:3.32338:/src/app/components/RobotCoreLogo.tsx:626:9:26977:60:e:rect"></rect>
  <!-- 星云效果 -->
  <ellipse cx="200" cy="300" rx="300" ry="250" fill="url(#nebulaGrad1)" opacity="0.8" />
  <ellipse cx="800" cy="700" rx="350" ry="300" fill="url(#nebulaGrad2)" opacity="0.7" />
  <ellipse cx="500" cy="850" rx="400" ry="200" fill="url(#nebulaGrad3)" opacity="0.6" />

  <!-- 深邃太空星星层（小星星） -->
  <g opacity="0.9">
    <circle cx="150" cy="120" r="0.8" fill="#ffffff" />
    <circle cx="320" cy="80" r="0.6" fill="#ffffff" />
    <circle cx="480" cy="150" r="0.7" fill="#ffffff" />
    <circle cx="650" cy="100" r="0.9" fill="#ffffff" />
    <circle cx="820" cy="180" r="0.5" fill="#ffffff" />
    <circle cx="950" cy="90" r="0.8" fill="#ffffff" />
    <circle cx="180" cy="250" r="0.6" fill="#ffffff" />
    <circle cx="380" cy="280" r="0.7" fill="#ffffff" />
    <circle cx="580" cy="240" r="0.5" fill="#ffffff" />
    <circle cx="750" cy="290" r="0.8" fill="#ffffff" />
    <circle cx="920" cy="320" r="0.6" fill="#ffffff" />
    <circle cx="120" cy="420" r="0.7" fill="#ffffff" />
    <circle cx="280" cy="450" r="0.5" fill="#ffffff" />
    <circle cx="450" cy="480" r="0.8" fill="#ffffff" />
    <circle cx="620" cy="520" r="0.6" fill="#ffffff" />
    <circle cx="780" cy="480" r="0.7" fill="#ffffff" />
    <circle cx="950" cy="500" r="0.5" fill="#ffffff" />
    <circle cx="200" cy="600" r="0.8" fill="#ffffff" />
    <circle cx="350" cy="630" r="0.6" fill="#ffffff" />
    <circle cx="520" cy="680" r="0.7" fill="#ffffff" />
    <circle cx="680" cy="650" r="0.5" fill="#ffffff" />
    <circle cx="850" cy="720" r="0.9" fill="#ffffff" />
    <circle cx="100" cy="750" r="0.6" fill="#ffffff" />
    <circle cx="250" cy="800" r="0.7" fill="#ffffff" />
    <circle cx="420" cy="850" r="0.8" fill="#ffffff" />
    <circle cx="600" cy="820" r="0.5" fill="#ffffff" />
    <circle cx="750" cy="880" r="0.7" fill="#ffffff" />
    <circle cx="900" cy="920" r="0.6" fill="#ffffff" />
    <circle cx="50" cy="550" r="0.5" fill="#ffffff" />
    <circle cx="980" cy="650" r="0.7" fill="#ffffff" />
  </g>

  <!-- 明亮星星（带光晕） -->
  <g opacity="1">
    <circle cx="250" cy="200" r="1.5" fill="#ffffff" filter="url(#glowLogo3)" />
    <circle cx="680" cy="350" r="1.2" fill="#ffffff" filter="url(#glowLogo3)" />
    <circle cx="450" cy="600" r="1.3" fill="#ffffff" filter="url(#glowLogo3)" />
    <circle cx="750" cy="550" r="1.4" fill="#ffffff" filter="url(#glowLogo3)" />
    <circle cx="150" cy="700" r="1.1" fill="#ffffff" filter="url(#glowLogo3)" />
    <circle cx="850" cy="250" r="1.6" fill="#ffffff" filter="url(#glowLogo3)" />
    <circle cx="300" cy="850" r="1.2" fill="#ffffff" filter="url(#glowLogo3)" />
    <circle cx="700" cy="800" r="1.3" fill="#ffffff" filter="url(#glowLogo3)" />
  </g>

  <!-- 彩色星星（增强太空感） -->
  <g opacity="0.8">
    <circle cx="180" cy="380" r="1" fill="#06b6d4" filter="url(#glowLogo3)" />
    <circle cx="720" cy="420" r="0.9" fill="#06b6d4" filter="url(#glowLogo3)" />
    <circle cx="380" cy="720" r="1.1" fill="#fbbf24" filter="url(#glowLogo3)" />
    <circle cx="620" cy="180" r="0.8" fill="#fbbf24" filter="url(#glowLogo3)" />
    <circle cx="880" cy="580" r="1" fill="#a855f7" filter="url(#glowLogo3)" />
    <circle cx="120" cy="580" r="0.9" fill="#a855f7" filter="url(#glowLogo3)" />
  </g>
  <!-- 增强的六边形网格背景 -->
  <g opacity="0.3"
    data-fg-dxml259="3.57:3.32338:/src/app/components/RobotCoreLogo.tsx:627:9:27046:485:e:g">&lt;polygon
    points="50,25 75,38 75,62 50,75 25,62 25,38" fill="none" stroke="#fbbf24" stroke-width="1"
    /&gt;&lt;polygon points="150,25 175,38 175,62 150,75 125,62 125,38" fill="none" stroke="#fbbf24"
    stroke-width="1" /&gt;&lt;polygon points="250,25 275,38 275,62 250,75 225,62 225,38" fill="none"
    stroke="#fbbf24" stroke-width="1" /&gt;&lt;polygon points="350,25 375,38 375,62 350,75 325,62
    325,38" fill="none" stroke="#fbbf24" stroke-width="1" /&gt;&lt;polygon points="450,25 475,38
    475,62 450,75 425,62 425,38" fill="none" stroke="#fbbf24" stroke-width="1" /&gt;&lt;polygon
    points="550,25 575,38 575,62 550,75 525,62 525,38" fill="none" stroke="#fbbf24" stroke-width="1"
    /&gt;&lt;polygon points="650,25 675,38 675,62 650,75 625,62 625,38" fill="none" stroke="#fbbf24"
    stroke-width="1" /&gt;&lt;polygon points="750,25 775,38 775,62 750,75 725,62 725,38" fill="none"
    stroke="#fbbf24" stroke-width="1" /&gt;&lt;polygon points="850,25 875,38 875,62 850,75 825,62
    825,38" fill="none" stroke="#fbbf24" stroke-width="1" /&gt;&lt;polygon points="950,25 975,38
    975,62 950,75 925,62 925,38" fill="none" stroke="#fbbf24" stroke-width="1" /&gt;&lt;polygon
    points="100,115 125,128 125,152 100,165 75,152 75,128" fill="none" stroke="#fbbf24"
    stroke-width="1" /&gt;&lt;polygon points="200,115 225,128 225,152 200,165 175,152 175,128"
    fill="none" stroke="#fbbf24" stroke-width="1" /&gt;&lt;polygon points="300,115 325,128 325,152
    300,165 275,152 275,128" fill="none" stroke="#fbbf24" stroke-width="1" /&gt;&lt;polygon
    points="400,115 425,128 425,152 400,165 375,152 375,128" fill="none" stroke="#fbbf24"
    stroke-width="1" /&gt;&lt;polygon points="500,115 525,128 525,152 500,165 475,152 475,128"
    fill="none" stroke="#fbbf24" stroke-width="1" /&gt;&lt;polygon points="600,115 625,128 625,152
    600,165 575,152 575,128" fill="none" stroke="#fbbf24" stroke-width="1" /&gt;&lt;polygon
    points="700,115 725,128 725,152 700,165 675,152 675,128" fill="none" stroke="#fbbf24"
    stroke-width="1" /&gt;&lt;polygon points="800,115 825,128 825,152 800,165 775,152 775,128"
    fill="none" stroke="#fbbf24" stroke-width="1" /&gt;&lt;polygon points="900,115 925,128 925,152
    900,165 875,152 875,128" fill="none" stroke="#fbbf24" stroke-width="1" /&gt;&lt;polygon
    points="1000,115 1025,128 1025,152 1000,165 975,152 975,128" fill="none" stroke="#fbbf24"
    stroke-width="1" /&gt;&lt;polygon points="50,205 75,218 75,242 50,255 25,242 25,218" fill="none"
    stroke="#fbbf24" stroke-width="1" /&gt;&lt;polygon points="150,205 175,218 175,242 150,255
    125,242 125,218" fill="none" stroke="#fbbf24" stroke-width="1" /&gt;&lt;polygon points="250,205
    275,218 275,242 250,255 225,242 225,218" fill="none" stroke="#fbbf24" stroke-width="1"
    /&gt;&lt;polygon points="350,205 375,218 375,242 350,255 325,242 325,218" fill="none"
    stroke="#fbbf24" stroke-width="1" /&gt;&lt;polygon points="450,205 475,218 475,242 450,255
    425,242 425,218" fill="none" stroke="#fbbf24" stroke-width="1" /&gt;&lt;polygon points="550,205
    575,218 575,242 550,255 525,242 525,218" fill="none" stroke="#fbbf24" stroke-width="1"
    /&gt;&lt;polygon points="650,205 675,218 675,242 650,255 625,242 625,218" fill="none"
    stroke="#fbbf24" stroke-width="1" /&gt;&lt;polygon points="750,205 775,218 775,242 750,255
    725,242 725,218" fill="none" stroke="#fbbf24" stroke-width="1" /&gt;&lt;polygon points="850,205
    875,218 875,242 850,255 825,242 825,218" fill="none" stroke="#fbbf24" stroke-width="1"
    /&gt;&lt;polygon points="950,205 975,218 975,242 950,255 925,242 925,218" fill="none"
    stroke="#fbbf24" stroke-width="1" /&gt;&lt;polygon points="100,295 125,308 125,332 100,345
    75,332 75,308" fill="none" stroke="#fbbf24" stroke-width="1" /&gt;&lt;polygon points="200,295
    225,308 225,332 200,345 175,332 175,308" fill="none" stroke="#fbbf24" stroke-width="1"
    /&gt;&lt;polygon points="300,295 325,308 325,332 300,345 275,332 275,308" fill="none"
    stroke="#fbbf24" stroke-width="1" /&gt;&lt;polygon points="400,295 425,308 425,332 400,345
    375,332 375,308" fill="none" stroke="#fbbf24" stroke-width="1" /&gt;&lt;polygon points="500,295
    525,308 525,332 500,345 475,332 475,308" fill="none" stroke="#fbbf24" stroke-width="1"
    /&gt;&lt;polygon points="600,295 625,308 625,332 600,345 575,332 575,308" fill="none"
    stroke="#fbbf24" stroke-width="1" /&gt;&lt;polygon points="700,295 725,308 725,332 700,345
    675,332 675,308" fill="none" stroke="#fbbf24" stroke-width="1" /&gt;&lt;polygon points="800,295
    825,308 825,332 800,345 775,332 775,308" fill="none" stroke="#fbbf24" stroke-width="1"
    /&gt;&lt;polygon points="900,295 925,308 925,332 900,345 875,332 875,308" fill="none"
    stroke="#fbbf24" stroke-width="1" /&gt;&lt;polygon points="1000,295 1025,308 1025,332 1000,345
    975,332 975,308" fill="none" stroke="#fbbf24" stroke-width="1" /&gt;&lt;polygon points="50,385
    75,398 75,422 50,435 25,422 25,398" fill="none" stroke="#fbbf24" stroke-width="1"
    /&gt;&lt;polygon points="150,385 175,398 175,422 150,435 125,422 125,398" fill="none"
    stroke="#fbbf24" stroke-width="1" /&gt;&lt;polygon points="250,385 275,398 275,422 250,435
    225,422 225,398" fill="none" stroke="#fbbf24" stroke-width="1" /&gt;&lt;polygon points="350,385
    375,398 375,422 350,435 325,422 325,398" fill="none" stroke="#fbbf24" stroke-width="1"
    /&gt;&lt;polygon points="450,385 475,398 475,422 450,435 425,422 425,398" fill="none"
    stroke="#fbbf24" stroke-width="1" /&gt;&lt;polygon points="550,385 575,398 575,422 550,435
    525,422 525,398" fill="none" stroke="#fbbf24" stroke-width="1" /&gt;&lt;polygon points="650,385
    675,398 675,422 650,435 625,422 625,398" fill="none" stroke="#fbbf24" stroke-width="1"
    /&gt;&lt;polygon points="750,385 775,398 775,422 750,435 725,422 725,398" fill="none"
    stroke="#fbbf24" stroke-width="1" /&gt;&lt;polygon points="850,385 875,398 875,422 850,435
    825,422 825,398" fill="none" stroke="#fbbf24" stroke-width="1" /&gt;&lt;polygon points="950,385
    975,398 975,422 950,435 925,422 925,398" fill="none" stroke="#fbbf24" stroke-width="1"
    /&gt;&lt;polygon points="100,475 125,488 125,512 100,525 75,512 75,488" fill="none"
    stroke="#fbbf24" stroke-width="1" /&gt;&lt;polygon points="200,475 225,488 225,512 200,525
    175,512 175,488" fill="none" stroke="#fbbf24" stroke-width="1" /&gt;&lt;polygon points="300,475
    325,488 325,512 300,525 275,512 275,488" fill="none" stroke="#fbbf24" stroke-width="1"
    /&gt;&lt;polygon points="400,475 425,488 425,512 400,525 375,512 375,488" fill="none"
    stroke="#fbbf24" stroke-width="1" /&gt;&lt;polygon points="500,475 525,488 525,512 500,525
    475,512 475,488" fill="none" stroke="#fbbf24" stroke-width="1" /&gt;&lt;polygon points="600,475
    625,488 625,512 600,525 575,512 575,488" fill="none" stroke="#fbbf24" stroke-width="1"
    /&gt;&lt;polygon points="700,475 725,488 725,512 700,525 675,512 675,488" fill="none"
    stroke="#fbbf24" stroke-width="1" /&gt;&lt;polygon points="800,475 825,488 825,512 800,525
    775,512 775,488" fill="none" stroke="#fbbf24" stroke-width="1" /&gt;&lt;polygon points="900,475
    925,488 925,512 900,525 875,512 875,488" fill="none" stroke="#fbbf24" stroke-width="1"
    /&gt;&lt;polygon points="1000,475 1025,488 1025,512 1000,525 975,512 975,488" fill="none"
    stroke="#fbbf24" stroke-width="1" /&gt;&lt;polygon points="50,565 75,578 75,602 50,615 25,602
    25,578" fill="none" stroke="#fbbf24" stroke-width="1" /&gt;&lt;polygon points="150,565 175,578
    175,602 150,615 125,602 125,578" fill="none" stroke="#fbbf24" stroke-width="1" /&gt;&lt;polygon
    points="250,565 275,578 275,602 250,615 225,602 225,578" fill="none" stroke="#fbbf24"
    stroke-width="1" /&gt;&lt;polygon points="350,565 375,578 375,602 350,615 325,602 325,578"
    fill="none" stroke="#fbbf24" stroke-width="1" /&gt;&lt;polygon points="450,565 475,578 475,602
    450,615 425,602 425,578" fill="none" stroke="#fbbf24" stroke-width="1" /&gt;&lt;polygon
    points="550,565 575,578 575,602 550,615 525,602 525,578" fill="none" stroke="#fbbf24"
    stroke-width="1" /&gt;&lt;polygon points="650,565 675,578 675,602 650,615 625,602 625,578"
    fill="none" stroke="#fbbf24" stroke-width="1" /&gt;&lt;polygon points="750,565 775,578 775,602
    750,615 725,602 725,578" fill="none" stroke="#fbbf24" stroke-width="1" /&gt;&lt;polygon
    points="850,565 875,578 875,602 850,615 825,602 825,578" fill="none" stroke="#fbbf24"
    stroke-width="1" /&gt;&lt;polygon points="950,565 975,578 975,602 950,615 925,602 925,578"
    fill="none" stroke="#fbbf24" stroke-width="1" /&gt;&lt;polygon points="100,655 125,668 125,692
    100,705 75,692 75,668" fill="none" stroke="#fbbf24" stroke-width="1" /&gt;&lt;polygon
    points="200,655 225,668 225,692 200,705 175,692 175,668" fill="none" stroke="#fbbf24"
    stroke-width="1" /&gt;&lt;polygon points="300,655 325,668 325,692 300,705 275,692 275,668"
    fill="none" stroke="#fbbf24" stroke-width="1" /&gt;&lt;polygon points="400,655 425,668 425,692
    400,705 375,692 375,668" fill="none" stroke="#fbbf24" stroke-width="1" /&gt;&lt;polygon
    points="500,655 525,668 525,692 500,705 475,692 475,668" fill="none" stroke="#fbbf24"
    stroke-width="1" /&gt;&lt;polygon points="600,655 625,668 625,692 600,705 575,692 575,668"
    fill="none" stroke="#fbbf24" stroke-width="1" /&gt;&lt;polygon points="700,655 725,668 725,692
    700,705 675,692 675,668" fill="none" stroke="#fbbf24" stroke-width="1" /&gt;&lt;polygon
    points="800,655 825,668 825,692 800,705 775,692 775,668" fill="none" stroke="#fbbf24"
    stroke-width="1" /&gt;&lt;polygon points="900,655 925,668 925,692 900,705 875,692 875,668"
    fill="none" stroke="#fbbf24" stroke-width="1" /&gt;&lt;polygon points="1000,655 1025,668
    1025,692 1000,705 975,692 975,668" fill="none" stroke="#fbbf24" stroke-width="1"
    /&gt;&lt;polygon points="50,745 75,758 75,782 50,795 25,782 25,758" fill="none" stroke="#fbbf24"
    stroke-width="1" /&gt;&lt;polygon points="150,745 175,758 175,782 150,795 125,782 125,758"
    fill="none" stroke="#fbbf24" stroke-width="1" /&gt;&lt;polygon points="250,745 275,758 275,782
    250,795 225,782 225,758" fill="none" stroke="#fbbf24" stroke-width="1" /&gt;&lt;polygon
    points="350,745 375,758 375,782 350,795 325,782 325,758" fill="none" stroke="#fbbf24"
    stroke-width="1" /&gt;&lt;polygon points="450,745 475,758 475,782 450,795 425,782 425,758"
    fill="none" stroke="#fbbf24" stroke-width="1" /&gt;&lt;polygon points="550,745 575,758 575,782
    550,795 525,782 525,758" fill="none" stroke="#fbbf24" stroke-width="1" /&gt;&lt;polygon
    points="650,745 675,758 675,782 650,795 625,782 625,758" fill="none" stroke="#fbbf24"
    stroke-width="1" /&gt;&lt;polygon points="750,745 775,758 775,782 750,795 725,782 725,758"
    fill="none" stroke="#fbbf24" stroke-width="1" /&gt;&lt;polygon points="850,745 875,758 875,782
    850,795 825,782 825,758" fill="none" stroke="#fbbf24" stroke-width="1" /&gt;&lt;polygon
    points="950,745 975,758 975,782 950,795 925,782 925,758" fill="none" stroke="#fbbf24"
    stroke-width="1" /&gt;&lt;polygon points="100,835 125,848 125,872 100,885 75,872 75,848"
    fill="none" stroke="#fbbf24" stroke-width="1" /&gt;&lt;polygon points="200,835 225,848 225,872
    200,885 175,872 175,848" fill="none" stroke="#fbbf24" stroke-width="1" /&gt;&lt;polygon
    points="300,835 325,848 325,872 300,885 275,872 275,848" fill="none" stroke="#fbbf24"
    stroke-width="1" /&gt;&lt;polygon points="400,835 425,848 425,872 400,885 375,872 375,848"
    fill="none" stroke="#fbbf24" stroke-width="1" /&gt;&lt;polygon points="500,835 525,848 525,872
    500,885 475,872 475,848" fill="none" stroke="#fbbf24" stroke-width="1" /&gt;&lt;polygon
    points="600,835 625,848 625,872 600,885 575,872 575,848" fill="none" stroke="#fbbf24"
    stroke-width="1" /&gt;&lt;polygon points="700,835 725,848 725,872 700,885 675,872 675,848"
    fill="none" stroke="#fbbf24" stroke-width="1" /&gt;&lt;polygon points="800,835 825,848 825,872
    800,885 775,872 775,848" fill="none" stroke="#fbbf24" stroke-width="1" /&gt;&lt;polygon
    points="900,835 925,848 925,872 900,885 875,872 875,848" fill="none" stroke="#fbbf24"
    stroke-width="1" /&gt;&lt;polygon points="1000,835 1025,848 1025,872 1000,885 975,872 975,848"
    fill="none" stroke="#fbbf24" stroke-width="1" /&gt;</g>
  <g transform="translate(500, 500)"
    data-fg-dxml261="3.57:3.32338:/src/app/components/RobotCoreLogo.tsx:636:9:27540:980:e:g"><circle
      r="420" fill="url(#metalGradLogo3)" opacity="0.5"
      data-fg-dxml262="3.57:3.32338:/src/app/components/RobotCoreLogo.tsx:637:11:27586:60:e:circle"></circle><circle
      r="420" fill="none" stroke="#4b5563" stroke-width="10" opacity="0.7"
      data-fg-dxml263="3.57:3.32338:/src/app/components/RobotCoreLogo.tsx:638:11:27657:79:e:circle"></circle>
    <!-- 刻度线 -->
    <g
      opacity="0.8">
      <!-- 主要刻度线（12个方向） -->
      <line x1="0" y1="-420" x2="0" y2="-435" stroke="#9ca3af" stroke-width="2" />
      <line x1="0" y1="420" x2="0" y2="435" stroke="#9ca3af" stroke-width="2" />
      <line x1="-420" y1="0" x2="-435" y2="0" stroke="#9ca3af" stroke-width="2" />
      <line x1="420" y1="0" x2="435" y2="0" stroke="#9ca3af" stroke-width="2" />
      <line x1="297" y1="-297" x2="307" y2="-307" stroke="#9ca3af" stroke-width="1.5" />
      <line x1="-297" y1="-297" x2="-307" y2="-307" stroke="#9ca3af" stroke-width="1.5" />
      <line x1="297" y1="297" x2="307" y2="307" stroke="#9ca3af" stroke-width="1.5" />
      <line x1="-297" y1="297" x2="-307" y2="307" stroke="#9ca3af" stroke-width="1.5" />
      <line x1="210" y1="-364" x2="217" y2="-377" stroke="#9ca3af" stroke-width="1.5" />
      <line x1="-210" y1="-364" x2="-217" y2="-377" stroke="#9ca3af" stroke-width="1.5" />
      <line x1="364" y1="-210" x2="377" y2="-217" stroke="#9ca3af" stroke-width="1.5" />
      <line x1="-364" y1="-210" x2="-377" y2="-217" stroke="#9ca3af" stroke-width="1.5" />
      <line x1="210" y1="364" x2="217" y2="377" stroke="#9ca3af" stroke-width="1.5" />
      <line x1="-210" y1="364" x2="-217" y2="377" stroke="#9ca3af" stroke-width="1.5" />
      <line x1="364" y1="210" x2="377" y2="217" stroke="#9ca3af" stroke-width="1.5" />
      <line x1="-364" y1="210" x2="-377" y2="217" stroke="#9ca3af" stroke-width="1.5" />
      <!-- 次要刻度线 -->
      <line x1="0" y1="-420" x2="0" y2="-410" stroke="#6b7280" stroke-width="1" />
      <line x1="0" y1="420" x2="0" y2="410" stroke="#6b7280" stroke-width="1" />
      <line x1="-420" y1="0" x2="-410" y2="0" stroke="#6b7280" stroke-width="1" />
      <line x1="420" y1="0" x2="410" y2="0" stroke="#6b7280" stroke-width="1" />
      <line x1="297" y1="-297" x2="303" y2="-303" stroke="#6b7280" stroke-width="1" />
      <line x1="-297" y1="-297" x2="-303" y2="-303" stroke="#6b7280" stroke-width="1" />
      <line x1="297" y1="297" x2="303" y2="303" stroke="#6b7280" stroke-width="1" />
      <line x1="-297" y1="297" x2="-303" y2="303" stroke="#6b7280" stroke-width="1" />
    </g>
    <!-- 目标标记 -->
    <g>
      <!-- 顶部 -->
      <circle cx="0" cy="-420" r="8" fill="#06b6d4" opacity="0.9" filter="url(#glowLogo3)" />
      <circle cx="0" cy="-420" r="5" fill="#22d3ee" />
      <circle cx="0" cy="-420" r="12" fill="none" stroke="url(#goldGradLogo3)" stroke-width="2"
        opacity="0.8" />
      <!-- 底部 -->
      <circle cx="0" cy="420" r="8" fill="#06b6d4" opacity="0.9" filter="url(#glowLogo3)" />
      <circle cx="0" cy="420" r="5" fill="#22d3ee" />
      <circle cx="0" cy="420" r="12" fill="none" stroke="url(#goldGradLogo3)" stroke-width="2"
        opacity="0.8" />
      <!-- 左侧 -->
      <circle cx="-420" cy="0" r="8" fill="#06b6d4" opacity="0.9" filter="url(#glowLogo3)" />
      <circle cx="-420" cy="0" r="5" fill="#22d3ee" />
      <circle cx="-420" cy="0" r="12" fill="none" stroke="url(#goldGradLogo3)" stroke-width="2"
        opacity="0.8" />
      <!-- 右侧 -->
      <circle cx="420" cy="0" r="8" fill="#06b6d4" opacity="0.9" filter="url(#glowLogo3)" />
      <circle cx="420" cy="0" r="5" fill="#22d3ee" />
      <circle cx="420" cy="0" r="12" fill="none" stroke="url(#goldGradLogo3)" stroke-width="2"
        opacity="0.8" />
      <!-- 对角线位置 -->
      <circle cx="297" cy="-297" r="6" fill="#06b6d4" opacity="0.8" filter="url(#glowLogo3)" />
      <circle cx="297" cy="-297" r="4" fill="#22d3ee" />
      <circle cx="297" cy="-297" r="10" fill="none" stroke="url(#goldGradLogo3)" stroke-width="1.5"
        opacity="0.7" />
      <circle cx="-297" cy="-297" r="6" fill="#06b6d4" opacity="0.8" filter="url(#glowLogo3)" />
      <circle cx="-297" cy="-297" r="4" fill="#22d3ee" />
      <circle cx="-297" cy="-297" r="10" fill="none" stroke="url(#goldGradLogo3)" stroke-width="1.5"
        opacity="0.7" />
      <circle cx="297" cy="297" r="6" fill="#06b6d4" opacity="0.8" filter="url(#glowLogo3)" />
      <circle cx="297" cy="297" r="4" fill="#22d3ee" />
      <circle cx="297" cy="297" r="10" fill="none" stroke="url(#goldGradLogo3)" stroke-width="1.5"
        opacity="0.7" />
      <circle cx="-297" cy="297" r="6" fill="#06b6d4" opacity="0.8" filter="url(#glowLogo3)" />
      <circle cx="-297" cy="297" r="4" fill="#22d3ee" />
      <circle cx="-297" cy="297" r="10" fill="none" stroke="url(#goldGradLogo3)" stroke-width="1.5"
        opacity="0.7" />
    </g>
    <circle
      r="385" fill="none" stroke="#6b7280" stroke-width="3"
      data-fg-dxml264="3.57:3.32338:/src/app/components/RobotCoreLogo.tsx:639:11:27747:64:e:circle"></circle><circle
      r="350" fill="#0a0a0a" opacity="0.95"
      data-fg-dxml265="3.57:3.32338:/src/app/components/RobotCoreLogo.tsx:640:11:27822:48:e:circle"></circle>    <circle
      r="375" fill="none" stroke="url(#goldGradLogo3)" stroke-width="6" opacity="0.9"
      filter="url(#glowLogo3)"
      data-fg-dxml266="3.57:3.32338:/src/app/components/RobotCoreLogo.tsx:641:11:27881:115:e:circle"></circle><circle
      r="330" fill="none" stroke="#fbbf24" stroke-width="3" opacity="0.6"
      data-fg-dxml267="3.57:3.32338:/src/app/components/RobotCoreLogo.tsx:642:11:28007:78:e:circle"></circle>&lt;line
    x1="362" y1="0" x2="398" y2="0" stroke="#6b7280" stroke-width="4" /&gt;&lt;line
    x1="313.5011961699668" y1="180.99999999999997" x2="344.6781107062066" y2="198.99999999999997"
    stroke="#6b7280" stroke-width="4" /&gt;&lt;line x1="181.00000000000003" y1="313.50119616996676"
    x2="199.00000000000006" y2="344.67811070620655" stroke="#6b7280" stroke-width="4" /&gt;&lt;line
    x1="2.2166107064567093e-14" y1="362" x2="2.437047130303233e-14" y2="398" stroke="#6b7280"
    stroke-width="4" /&gt;&lt;line x1="-180.99999999999991" y1="313.5011961699668"
    x2="-198.99999999999991" y2="344.6781107062066" stroke="#6b7280" stroke-width="4" /&gt;&lt;line
    x1="-313.5011961699668" y1="180.99999999999997" x2="-344.6781107062066" y2="198.99999999999997"
    stroke="#6b7280" stroke-width="4" /&gt;&lt;line x1="-362" y1="4.4332214129134187e-14" x2="-398"
    y2="4.874094260606466e-14" stroke="#6b7280" stroke-width="4" /&gt;&lt;line
    x1="-313.50119616996676" y1="-181.00000000000003" x2="-344.67811070620655"
    y2="-199.00000000000006" stroke="#6b7280" stroke-width="4" /&gt;&lt;line
    x1="-181.00000000000017" y1="-313.5011961699667" x2="-199.00000000000017"
    y2="-344.6781107062065" stroke="#6b7280" stroke-width="4" /&gt;&lt;line
    x1="-6.649832119370127e-14" y1="-362" x2="-7.311141390909698e-14" y2="-398" stroke="#6b7280"
    stroke-width="4" /&gt;&lt;line x1="181.00000000000003" y1="-313.50119616996676"
    x2="199.00000000000006" y2="-344.67811070620655" stroke="#6b7280" stroke-width="4" /&gt;&lt;line
    x1="313.5011961699667" y1="-181.00000000000017" x2="344.6781107062065" y2="-199.00000000000017"
    stroke="#6b7280" stroke-width="4" /&gt;</g>
  <g transform="translate(500, 500)"
    data-fg-dxml269="3.57:3.32338:/src/app/components/RobotCoreLogo.tsx:652:9:28529:3444:e:g">
    <!-- 轨道环 -->
    <ellipse
      cx="0" cy="0" rx="120" ry="40" fill="none" stroke="url(#orbitRingGrad)" stroke-width="1.5"
      opacity="0.6" transform="rotate(45)" />
    <ellipse cx="0" cy="0" rx="120" ry="40" fill="none"
      stroke="url(#orbitRingGrad)" stroke-width="1.5" opacity="0.6" transform="rotate(-45)" />
    <circle
      r="110" fill="none" stroke="#06b6d4" stroke-width="1" stroke-dasharray="4 4" opacity="0.4" />
    <circle
      r="130" fill="none" stroke="#fbbf24" stroke-width="1" stroke-dasharray="3 3" opacity="0.3" />

    <!-- 增强的星球主体 -->
    <circle
      r="80" fill="url(#planetGrad)" filter="url(#glowLogo3)" />
    <circle
      r="70" fill="url(#planetGrad)" filter="url(#glowLogo3)" opacity="0.9" />

    <!-- 增强的数据流/能量流 -->
    <g
      opacity="1">
      <path d="M -110,0 Q -60,-40 -30,-20 T 30,0" fill="none" stroke="#06b6d4" stroke-width="3"
        stroke-dasharray="4 4" opacity="0.9" filter="url(#glowLogo3)" />
      <path d="M 110,0 Q 60,40 30,20 T -30,0" fill="none" stroke="#06b6d4" stroke-width="3"
        stroke-dasharray="4 4" opacity="0.9" filter="url(#glowLogo3)" />
      <path d="M 0,-110 Q 40,-60 20,-30 T 0,30" fill="none" stroke="#fbbf24" stroke-width="3"
        stroke-dasharray="4 4" opacity="0.8" filter="url(#glowLogo3)" />
      <path d="M 0,110 Q -40,60 -20,30 T 0,-30" fill="none" stroke="#fbbf24" stroke-width="3"
        stroke-dasharray="4 4" opacity="0.8" filter="url(#glowLogo3)" />
      <!-- 对角线能量流 -->
      <path d="M -78,-78 Q -40,-40 -20,-20 T 0,0" fill="none" stroke="#06b6d4" stroke-width="2"
        stroke-dasharray="3 3" opacity="0.7" filter="url(#glowLogo3)" />
      <path d="M 78,78 Q 40,40 20,20 T 0,0" fill="none" stroke="#06b6d4" stroke-width="2"
        stroke-dasharray="3 3" opacity="0.7" filter="url(#glowLogo3)" />
      <path d="M 78,-78 Q 40,-40 20,-20 T 0,0" fill="none" stroke="#fbbf24" stroke-width="2"
        stroke-dasharray="3 3" opacity="0.7" filter="url(#glowLogo3)" />
      <path d="M -78,78 Q -40,40 -20,20 T 0,0" fill="none" stroke="#fbbf24" stroke-width="2"
        stroke-dasharray="3 3" opacity="0.7" filter="url(#glowLogo3)" />
    </g>

    <!-- 增强的环绕粒子 -->
    <g opacity="1">
      <circle cx="0" cy="-110" r="3" fill="#06b6d4" filter="url(#glowLogo3)" />
      <circle cx="0" cy="110" r="3" fill="#06b6d4" filter="url(#glowLogo3)" />
      <circle cx="-110" cy="0" r="3" fill="#06b6d4" filter="url(#glowLogo3)" />
      <circle cx="110" cy="0" r="3" fill="#06b6d4" filter="url(#glowLogo3)" />
      <circle cx="78" cy="-78" r="2.5" fill="#fbbf24" filter="url(#glowLogo3)" />
      <circle cx="-78" cy="-78" r="2.5" fill="#fbbf24" filter="url(#glowLogo3)" />
      <circle cx="78" cy="78" r="2.5" fill="#fbbf24" filter="url(#glowLogo3)" />
      <circle cx="-78" cy="78" r="2.5" fill="#fbbf24" filter="url(#glowLogo3)" />
      <!-- 额外的小粒子 -->
      <circle cx="0" cy="-130" r="1.5" fill="#06b6d4" filter="url(#glowLogo3)" opacity="0.8" />
      <circle cx="0" cy="130" r="1.5" fill="#06b6d4" filter="url(#glowLogo3)" opacity="0.8" />
      <circle cx="-130" cy="0" r="1.5" fill="#06b6d4" filter="url(#glowLogo3)" opacity="0.8" />
      <circle cx="130" cy="0" r="1.5" fill="#06b6d4" filter="url(#glowLogo3)" opacity="0.8" />
    </g>

    <!-- 增强的中心能量核心 -->
    <circle
      r="20" fill="#06b6d4" filter="url(#strongGlowLogo3)" opacity="1" />
    <circle r="15"
      fill="#22d3ee" opacity="1" />
    <circle r="10" fill="#ffffff" opacity="1" />
    <circle r="6" fill="#06b6d4" opacity="0.9" />

    <!-- 增强的轨道环 -->
    <ellipse
      cx="0" cy="0" rx="150" ry="50" fill="none" stroke="url(#orbitRingGrad)" stroke-width="2"
      opacity="0.9" transform="rotate(45)" />
    <ellipse cx="0" cy="0" rx="150" ry="50" fill="none"
      stroke="url(#orbitRingGrad)" stroke-width="2" opacity="0.9" transform="rotate(-45)" />
    <circle
      r="140" fill="none" stroke="#06b6d4" stroke-width="2" stroke-dasharray="6 6" opacity="0.7" />
    <circle
      r="160" fill="none" stroke="#fbbf24" stroke-width="2" stroke-dasharray="4 4" opacity="0.6" /></g>
  <!-- 增强的金色粒子效果 -->
  <g opacity="0.85"
    data-fg-dxml298="3.57:3.32338:/src/app/components/RobotCoreLogo.tsx:690:9:31982:313:e:g">&lt;circle
    cx="441.85215806646596" cy="372.568482083576" r="1.9092121328040093" fill="#fbbf24"
    /&gt;&lt;circle cx="923.1441014663751" cy="859.2892262369181" r="2.3227300450134805"
    fill="#fbbf24" /&gt;&lt;circle cx="753.420283911347" cy="620.0694062351471"
    r="2.771894378729202" fill="#fbbf24" /&gt;&lt;circle cx="803.5535534052843"
    cy="79.5374283817264" r="1.0535411352364368" fill="#fbbf24" /&gt;&lt;circle
    cx="513.7046069414906" cy="991.2623738940151" r="3.174427788422859" fill="#fbbf24"
    /&gt;&lt;circle cx="288.3510653028154" cy="165.29653689370681" r="3.2340168465926635"
    fill="#fbbf24" /&gt;&lt;circle cx="219.04428902970352" cy="44.37703542787597"
    r="1.9254477588238452" fill="#fbbf24" /&gt;&lt;circle cx="309.89420923632736"
    cy="822.5160628751777" r="2.120595726680212" fill="#fbbf24" /&gt;&lt;circle
    cx="628.9254632113519" cy="943.046696464923" r="2.9985665011428546" fill="#fbbf24"
    /&gt;&lt;circle cx="302.70136455715226" cy="332.6508639700544" r="2.083139038023304"
    fill="#fbbf24" /&gt;&lt;circle cx="450.7159563491546" cy="994.6477197494962"
    r="1.4465408341732524" fill="#fbbf24" /&gt;&lt;circle cx="522.6209598804281"
    cy="577.8154359346549" r="2.4267229209016787" fill="#fbbf24" /&gt;&lt;circle
    cx="201.81332249005536" cy="205.6503885843354" r="3.1010747090030506" fill="#fbbf24"
    /&gt;&lt;circle cx="228.0330348570573" cy="487.94614791540437" r="1.816731934296011"
    fill="#fbbf24" /&gt;&lt;circle cx="408.2366609253536" cy="786.395179287623"
    r="2.434662053012119" fill="#fbbf24" /&gt;&lt;circle cx="981.0836650823335"
    cy="343.92498122144866" r="2.8011030776989005" fill="#fbbf24" /&gt;&lt;circle
    cx="517.7738988831045" cy="864.6704854443481" r="3.815450666833524" fill="#fbbf24"
    /&gt;&lt;circle cx="638.4255357346794" cy="944.801639405165" r="1.5610329846263518"
    fill="#fbbf24" /&gt;&lt;circle cx="482.8756626750753" cy="292.75692938331986"
    r="1.9360843280664675" fill="#fbbf24" /&gt;&lt;circle cx="598.4369051296268"
    cy="380.05598988281895" r="2.3173789494754553" fill="#fbbf24" /&gt;&lt;circle
    cx="28.075824517592164" cy="684.8017983329496" r="3.5753556913279008" fill="#fbbf24"
    /&gt;&lt;circle cx="201.48578616502033" cy="277.94083181702734" r="3.74291120292915"
    fill="#fbbf24" /&gt;&lt;circle cx="289.50427808066337" cy="248.19977562840612"
    r="3.7809663762123837" fill="#fbbf24" /&gt;&lt;circle cx="802.5889544282408"
    cy="128.19027942963945" r="2.063026207127412" fill="#fbbf24" /&gt;&lt;circle
    cx="780.9483695513903" cy="59.61138852749792" r="3.6382601841719904" fill="#fbbf24"
    /&gt;&lt;circle cx="206.51148014898823" cy="771.9243841147488" r="3.637445472609922"
    fill="#fbbf24" /&gt;&lt;circle cx="153.32186400199853" cy="434.43341994246754"
    r="1.5845937043210978" fill="#fbbf24" /&gt;&lt;circle cx="438.2502058954756"
    cy="128.69112246386715" r="3.23345396435489" fill="#fbbf24" /&gt;&lt;circle
    cx="626.3325503977518" cy="506.909921308831" r="3.361045566734755" fill="#fbbf24"
    /&gt;&lt;circle cx="502.95946397248105" cy="223.37763784027487" r="2.9849884741215718"
    fill="#fbbf24" /&gt;&lt;circle cx="344.16970998827424" cy="488.68305067856"
    r="1.4859579975646122" fill="#fbbf24" /&gt;&lt;circle cx="978.1014537608028"
    cy="318.37254882616116" r="2.5076182492898607" fill="#fbbf24" /&gt;&lt;circle
    cx="966.6150986791966" cy="51.44506458919707" r="3.3600779295412893" fill="#fbbf24"
    /&gt;&lt;circle cx="171.41722872961896" cy="105.7136028925143" r="3.2956794319837366"
    fill="#fbbf24" /&gt;&lt;circle cx="332.1850961066507" cy="601.2957165971465"
    r="2.41315568859594" fill="#fbbf24" /&gt;&lt;circle cx="981.3627126909088"
    cy="762.4229493124674" r="1.3622670718329903" fill="#fbbf24" /&gt;&lt;circle
    cx="153.81622065603906" cy="271.5751510336982" r="2.6774978382787475" fill="#fbbf24"
    /&gt;&lt;circle cx="30.8586122822716" cy="88.46397623518321" r="1.1058206897238745"
    fill="#fbbf24" /&gt;&lt;circle cx="27.216803903704957" cy="50.077559022582705"
    r="3.9068458331790556" fill="#fbbf24" /&gt;&lt;circle cx="888.1946948977984"
    cy="542.2559463131244" r="1.2624772188653657" fill="#fbbf24" /&gt;</g>
  <!-- 额外的金色粒子点缀（融入深邃太空） -->
  <g opacity="0.5">
    <circle cx="120" cy="180" r="1.2" fill="#fbbf24" filter="url(#glowLogo3)" />
    <circle cx="850" cy="220" r="1.5" fill="#fbbf24" filter="url(#glowLogo3)" />
    <circle cx="320" cy="450" r="1" fill="#fbbf24" filter="url(#glowLogo3)" />
    <circle cx="680" cy="380" r="1.3" fill="#fbbf24" filter="url(#glowLogo3)" />
    <circle cx="150" cy="750" r="1.1" fill="#fbbf24" filter="url(#glowLogo3)" />
    <circle cx="820" cy="680" r="1.4" fill="#fbbf24" filter="url(#glowLogo3)" />
    <circle cx="280" cy="850" r="1" fill="#fbbf24" filter="url(#glowLogo3)" />
    <circle cx="720" cy="920" r="1.2" fill="#fbbf24" filter="url(#glowLogo3)" />
    <circle cx="90" cy="420" r="0.9" fill="#fbbf24" filter="url(#glowLogo3)" />
    <circle cx="910" cy="480" r="1.6" fill="#fbbf24" filter="url(#glowLogo3)" />
    <circle cx="180" cy="620" r="1" fill="#fbbf24" filter="url(#glowLogo3)" />
    <circle cx="760" cy="560" r="1.1" fill="#fbbf24" filter="url(#glowLogo3)" />
    <circle cx="240" cy="280" r="1.3" fill="#fbbf24" filter="url(#glowLogo3)" />
    <circle cx="640" cy="240" r="1" fill="#fbbf24" filter="url(#glowLogo3)" />
    <circle cx="380" cy="120" r="1.2" fill="#fbbf24" filter="url(#glowLogo3)" />
    <circle cx="620" cy="160" r="1.4" fill="#fbbf24" filter="url(#glowLogo3)" />
    <circle cx="450" cy="800" r="1" fill="#fbbf24" filter="url(#glowLogo3)" />
    <circle cx="550" cy="760" r="1.1" fill="#fbbf24" filter="url(#glowLogo3)" />
    <circle cx="200" cy="320" r="0.9" fill="#fbbf24" filter="url(#glowLogo3)" />
    <circle cx="800" cy="360" r="1.5" fill="#fbbf24" filter="url(#glowLogo3)" />
  </g>
</svg>
