<svg xmlns="http://www.w3.org/2000/svg" width="24" height="24"><defs><linearGradient id="a" x1="0%" x2="100%" y1="0%" y2="100%"><stop offset="0%" style="stop-color:#f90"/><stop offset="50%" style="stop-color:#ffa723"/><stop offset="100%" style="stop-color:#ffb547"/></linearGradient></defs><path fill="url(#a)" d="M13.527 12.49q0 .419.069.695c.051.183.114.382.2.586q.042.113.04.223c0 .097-.057.194-.183.291l-.606.405a.46.46 0 0 1-.246.086q-.137 0-.274-.131a2.2 2.2 0 0 1-.326-.394 7 7 0 0 1-.28-.485q-1.063 1.258-2.674 1.257c-.766 0-1.377-.222-1.823-.663s-.674-1.028-.674-1.766q0-1.174.823-1.903.821-.728 2.2-.729.454.002.946.08.497.077 1.028.223v-.657q-.002-1.022-.423-1.434-.427-.411-1.463-.411-.47.002-.963.114a7 7 0 0 0-.963.291 1.2 1.2 0 0 1-.331.103 3 3 0 0 1-.16.008q-.214 0-.214-.309v-.485q0-.239.069-.349a.8.8 0 0 1 .24-.223q.445-.23 1.063-.383a5.4 5.4 0 0 1 1.314-.154q1.5 0 2.194.686.686.685.686 2.091v2.754h.011zm-3.691 1.291q.438.002.903-.16.465-.155.817-.56.207-.255.303-.571.093-.315.091-.76v-.366a9 9 0 0 0-.811-.154 6 6 0 0 0-.823-.057q-.883-.002-1.303.349-.421.351-.423 1.011 0 .625.326.937c.211.211.514.331.92.331m7.04.931q-.273 0-.383-.103c-.074-.063-.137-.206-.194-.417l-2.171-7.154a2.3 2.3 0 0 1-.086-.434q0-.257.257-.257h1.051q.309 0 .411.103c.074.063.131.206.183.417l1.554 6.126 1.446-6.126c.045-.217.097-.354.171-.417s.217-.103.417-.103h.857c.206 0 .349.034.417.103.074.063.131.206.171.417l1.463 6.2 1.6-6.2c.051-.217.109-.354.183-.417s.211-.103.411-.103h.997q.257 0 .257.257a1 1 0 0 1-.017.16 2 2 0 0 1-.063.24l-2.229 7.154q-.084.324-.194.417-.11.103-.383.103h-.923c-.206 0-.349-.034-.417-.103-.074-.069-.131-.206-.171-.423l-1.44-5.994-1.429 5.989c-.045.217-.097.354-.171.423s-.217.103-.417.103h-.923z"/></svg>