<?xml version="1.0" encoding="UTF-8"?>
<svg width="30px" height="24px" viewBox="0 0 30 24" version="1.1" xmlns="http://www.w3.org/2000/svg" xmlns:xlink="http://www.w3.org/1999/xlink">
    <g stroke="none" stroke-width="1" fill="none" fill-rule="evenodd">
        <path d="M8.11,16.33 L4.43,15.16 C4.16,15.07 3.87,15.21 3.78,15.48 L2.61,19.16 C2.52,19.43 2.66,19.72 2.93,19.81 L6.61,20.98 C6.88,21.07 7.17,20.93 7.26,20.66 L8.43,16.98 C8.52,16.71 8.38,16.42 8.11,16.33 Z" fill="#000000" fill-rule="nonzero"></path>
        <path d="M27.39,15.48 C27.3,15.21 27.01,15.07 26.74,15.16 L23.06,16.33 C22.79,16.42 22.65,16.71 22.74,16.98 L23.91,20.66 C24,20.93 24.29,21.07 24.56,20.98 L28.24,19.81 C28.51,19.72 28.65,19.43 28.56,19.16 L27.39,15.48 Z" fill="#000000" fill-rule="nonzero"></path>
        <path d="M15.5,3 C11.91,3 9,5.91 9,9.5 C9,13.09 11.91,16 15.5,16 C19.09,16 22,13.09 22,9.5 C22,5.91 19.09,3 15.5,3 Z M15.5,14 C13.01,14 11,11.99 11,9.5 C11,7.01 13.01,5 15.5,5 C17.99,5 20,7.01 20,9.5 C20,11.99 17.99,14 15.5,14 Z" fill="#000000" fill-rule="nonzero"></path>
    </g>
</svg>
