<?xml version="1.0" encoding="UTF-8"?>
<svg width="24px" height="24px" viewBox="0 0 24 24" version="1.1" xmlns="http://www.w3.org/2000/svg">
    <defs>
        <linearGradient id="awsGradient" x1="0%" y1="0%" x2="100%" y2="100%">
            <stop offset="0%" style="stop-color:#FF9900"/>
            <stop offset="50%" style="stop-color:#FFA723"/>
            <stop offset="100%" style="stop-color:#FFB547"/>
        </linearGradient>
    </defs>
    <path d="M13.527 12.49c0 .28.023.51.069.695.051.183.114.382.2.586.029.075.04.15.04.223 0 .097-.057.194-.183.291l-.606.405c-.086.057-.172.086-.246.086-.091 0-.183-.043-.274-.131-.126-.12-.234-.252-.326-.394-.091-.143-.183-.303-.28-.485-.709.84-1.6 1.257-2.674 1.257-.766 0-1.377-.222-1.823-.663-.446-.442-.674-1.028-.674-1.766 0-.783.274-1.417.823-1.903.548-.485 1.28-.729 2.2-.729.303 0 .617.029.946.08.331.051.674.126 1.028.223v-.657c0-.68-.143-1.16-.423-1.434-.286-.274-.771-.411-1.463-.411-.314 0-.634.04-.963.114-.331.075-.651.171-.963.291-.149.063-.257.097-.331.103-.069.005-.126.008-.16.008-.143 0-.214-.103-.214-.309v-.485c0-.16.023-.275.069-.349.045-.074.126-.149.24-.223.297-.154.651-.28 1.063-.383.411-.103.849-.154 1.314-.154 1 0 1.731.229 2.194.686.457.457.686 1.154.686 2.091v2.754h.011zm-3.691 1.291c.291 0 .594-.051.903-.16.309-.103.583-.291.817-.56.137-.171.24-.36.303-.571.063-.211.091-.463.091-.76v-.366c-.257-.063-.531-.114-.811-.154-.28-.04-.554-.057-.823-.057-.589 0-1.023.114-1.303.349-.28.234-.423.571-.423 1.011 0 .417.109.729.326.937.211.211.514.331.92.331zm7.04 .931c-.183 0-.309-.034-.383-.103-.074-.063-.137-.206-.194-.417l-2.171-7.154c-.057-.223-.086-.366-.086-.434 0-.171.086-.257.257-.257h1.051c.206 0 .343.034.411.103.074.063.131.206.183.417l1.554 6.126 1.446-6.126c.045-.217.097-.354.171-.417.074-.063.217-.103.417-.103h.857c.206 0 .349.034.417.103.074.063.131.206.171.417l1.463 6.2 1.6-6.2c.051-.217.109-.354.183-.417.074-.063.211-.103.411-.103h.997c.171 0 .257.086.257.257 0 .051-.006.103-.017.16-.011.057-.029.131-.063.24l-2.229 7.154c-.057.217-.12.354-.194.417-.074.069-.2.103-.383.103h-.923c-.206 0-.349-.034-.417-.103-.074-.069-.131-.206-.171-.423l-1.44-5.994-1.429 5.989c-.045.217-.097.354-.171.423-.074.069-.217.103-.417.103h-.923z" fill="url(#awsGradient)"/>
</svg>
