<svg xmlns="http://www.w3.org/2000/svg" width="24" height="24" fill="none"><defs><linearGradient id="a" x1="2" x2="22" y1="2" y2="22" gradientUnits="userSpaceOnUse"><stop offset="0%" stop-color="#7D2AE8"/><stop offset="100%" stop-color="#00C4CC"/></linearGradient></defs><path fill="url(#a)" d="M12 2C6.48 2 2 6.48 2 12s4.48 10 10 10 10-4.48 10-10S17.52 2 12 2m0 4c1.93 0 3.5 1.57 3.5 3.5S13.93 13 12 13s-3.5-1.57-3.5-3.5S10.07 6 12 6m0 14c-2.03 0-3.9-.67-5.34-1.88.95-1.39 2.53-2.32 4.34-2.32h2c1.81 0 3.39.93 4.34 2.32C15.9 19.33 14.03 20 12 20"/></svg>