<svg xmlns="http://www.w3.org/2000/svg" width="24" height="24"><defs><linearGradient id="a" x1="0%" x2="100%" y1="0%" y2="100%"><stop offset="0%" style="stop-color:#ffb74d"/><stop offset="50%" style="stop-color:#ffa726"/><stop offset="100%" style="stop-color:#ff9800"/></linearGradient></defs><path fill="url(#a)" d="M20 2H4c-1.1 0-2 .9-2 2v16c0 1.1.9 2 2 2h16c1.1 0 2-.9 2-2V4c0-1.1-.9-2-2-2M8 20H4v-4h4zm0-6H4v-4h4zm0-6H4V4h4zm6 12h-4v-4h4zm0-6h-4v-4h4zm0-6h-4V4h4zm6 12h-4v-4h4zm0-6h-4v-4h4zm0-6h-4V4h4z"/></svg>