<svg xmlns="http://www.w3.org/2000/svg" viewBox="0 0 24 24">
  <path fill="#2C2255" d="M11.109.024a12.377 12.377 0 0 0-2.769.384C3.555 1.639 0 6.82 0 12.009c0 6.711 5.383 12.127 12.041 12.127 5.203 0 9.619-3.362 11.227-8.039a11.94 11.94 0 0 0 .708-4.088c0-6.71-5.383-12.127-12.041-12.127-.276 0-.549.011-.826.024v.118zm-.118 2.18c5.146 0 9.364 4.242 9.364 9.451 0 1.576-.383 3.057-1.06 4.357-2.71-1.172-6.416-1.915-10.495-1.915-.299 0-.595.004-.889.011C4.311 13.907 1.8 10.403 1.8 6.234c0-2.17.796-4.153 2.112-5.659 1.736-1.994 4.288-3.255 7.079-3.255V2.18z"/>
</svg>
