<svg xmlns="http://www.w3.org/2000/svg" viewBox="0 0 24 24"><path fill="#2C2255" d="M11.109.024A12.4 12.4 0 0 0 8.34.408C3.555 1.639 0 6.82 0 12.009c0 6.711 5.383 12.127 12.041 12.127 5.203 0 9.619-3.362 11.227-8.039a12 12 0 0 0 .708-4.088c0-6.71-5.383-12.127-12.041-12.127-.276 0-.549.011-.826.024zm-.118 2.18c5.146 0 9.364 4.242 9.364 9.451a9.4 9.4 0 0 1-1.06 4.357c-2.71-1.172-6.416-1.915-10.495-1.915q-.448 0-.889.011c-3.6-.201-6.111-3.705-6.111-7.874 0-2.17.796-4.153 2.112-5.659C5.648-1.419 8.2-2.68 10.991-2.68v4.86z"/></svg>