<?xml version="1.0" encoding="UTF-8"?>
<svg width="24" height="24" viewBox="0 0 24 24" fill="none" xmlns="http://www.w3.org/2000/svg">
    <defs>
        <linearGradient id="figma_gradient" x1="2" y1="2" x2="22" y2="22" gradientUnits="userSpaceOnUse">
            <stop offset="0%" stop-color="#FF7262"/>
            <stop offset="100%" stop-color="#A259FF"/>
        </linearGradient>
    </defs>
    <path d="M12 2H8C5.79086 2 4 3.79086 4 6C4 8.20914 5.79086 10 8 10H12V2Z" fill="url(#figma_gradient)"/>
    <path d="M12 10H8C5.79086 10 4 11.7909 4 14C4 16.2091 5.79086 18 8 18C10.2091 18 12 16.2091 12 14V10Z" fill="url(#figma_gradient)"/>
    <path d="M12 2H16C18.2091 2 20 3.79086 20 6C20 8.20914 18.2091 10 16 10H12V2Z" fill="url(#figma_gradient)"/>
    <path d="M16 10C18.2091 10 20 11.7909 20 14C20 16.2091 18.2091 18 16 18C13.7909 18 12 16.2091 12 14C12 11.7909 13.7909 10 16 10Z" fill="url(#figma_gradient)"/>
</svg>
