<?xml version="1.0" encoding="UTF-8"?>
<svg width="24px" height="24px" viewBox="0 0 24 24" version="1.1" xmlns="http://www.w3.org/2000/svg">
    <defs>
        <linearGradient id="jasperGradient" x1="0%" y1="0%" x2="100%" y2="100%">
            <stop offset="0%" style="stop-color:#F97316"/>
            <stop offset="50%" style="stop-color:#EA580C"/>
            <stop offset="100%" style="stop-color:#C2410C"/>
        </linearGradient>
    </defs>
    <path d="M19 3H5c-1.1 0-2 .9-2 2v14c0 1.1.9 2 2 2h14c1.1 0 2-.9 2-2V5c0-1.1-.9-2-2-2zm0 16H5V5h14v14zm-2-2H7v-2h10v2zm0-4H7v-2h10v2zm0-4H7V7h10v2z" fill="url(#jasperGradient)"/>
</svg>
