<svg xmlns="http://www.w3.org/2000/svg" width="24" height="24"><defs><linearGradient id="a" x1="0%" x2="100%" y1="0%" y2="100%"><stop offset="0%" style="stop-color:#424242"/><stop offset="50%" style="stop-color:#212121"/><stop offset="100%" style="stop-color:#000"/></linearGradient></defs><path fill="url(#a)" d="M13.54 12a6.8 6.8 0 0 1-6.77 6.82A6.8 6.8 0 0 1 0 12a6.8 6.8 0 0 1 6.77-6.82A6.8 6.8 0 0 1 13.54 12m7.42 0c0 3.54-1.51 6.42-3.38 6.42s-3.39-2.88-3.39-6.42 1.52-6.42 3.39-6.42 3.38 2.88 3.38 6.42M24 12c0 3.17-.53 5.75-1.19 5.75s-1.19-2.58-1.19-5.75.53-5.75 1.19-5.75S24 8.83 24 12"/></svg>