<?xml version="1.0" encoding="UTF-8"?>
<svg width="24" height="24" viewBox="0 0 24 24" fill="none" xmlns="http://www.w3.org/2000/svg">
    <path d="M4.459 4.208c.746.606 1.026.56 2.428.466l13.215-.793c.28 0 .047-.28-.046-.326L17.86 2.767c-.42-.326-.981-.7-2.055-.607L3.81 3.067c-.466.046-.56.28-.42.466l1.07.675zm.793 2.757V20.37c0 .746.373 1.027 1.214.98l14.195-.84c.84-.046.84-.56.84-1.167V6.278c0-.606-.187-.932-.793-.887l-14.801.887c-.653.047-.653.467-.653.887zm14.661.42c.093.42 0 .84-.42.887l-.7.14v10.264c-.608.327-1.168.514-1.635.514-.748 0-.935-.187-1.495-.886l-4.577-7.186v6.953l1.448.84c0 0-.84 2.055-3.256 2.055l-2.009-.187c-.187-.327 0-.746.373-.84l.981-.14V9.268l-1.355-.14c-.093-.42 0-.932.513-.98l2.615-.186 4.764 7.279v-6.44l-1.215-.139c-.093-.514.28-.887.747-.933zM1.936 1.035l13.31-.98c1.634-.14 2.055-.047 3.082.7l4.249 2.986c.7.513.934.653.934 1.213v16.378c0 1.026-.373 1.634-1.68 1.726l-15.004.886c-.981.047-1.448-.047-1.962-.747l-3.256-4.764c-.56-.84-.748-1.448-.748-2.147V2.767c0-.839.373-1.68 1.075-1.732z" fill="black"/>
</svg>
