<svg xmlns="http://www.w3.org/2000/svg" width="24" height="24"><defs><linearGradient id="a" x1="0%" x2="100%" y1="0%" y2="100%"><stop offset="0%" style="stop-color:#fb8c00"/><stop offset="50%" style="stop-color:#f57c00"/><stop offset="100%" style="stop-color:#ef6c00"/></linearGradient></defs><path fill="url(#a)" d="M15 21H5v-2h10zm6-11.665L19.379 0l-1.993.346 1.62 9.335zm-5.964 6.937-9.746-.975-.186 2.016 9.755.879zm.538-2.587-9.276-2.608-.526 1.954 9.306 2.5zm1.204-2.413L8.481 6.408 7.452 8.151l8.298 4.865zm1.866-1.467-5.339-7.829-1.672 1.14 5.339 7.829zM16 14v8H4v-8H2v10h16V14z"/></svg>